# xmcd
#
# Track frame offsets:
#	150
#	16611
#	37571
#	55001
#	67901
#	90668
#	114306
#	131563
#	146853
#	162706
#	180731
#	206001
#	224563
#	238041
#	248916
#	274596
#	293046
#	309641
#	330058
#	344671
#
# Disc length: 4674 seconds
#
# Revision: 1
# Processed by: cddbd v1.5.1PL2 Copyright (c) Steve Scherf et al.
# Submitted via: EasyCDDAExtractor 7.0.6.1
#
DISCID=21124014
DTITLE=Oswaldo Montenegro - Novo Millennium
DYEAR=2005
DGENRE=MPB
TTITLE0=Prá Longe de Paranoá
TTITLE1=Lua e Flor
TTITLE2=Coisas de Brasília
TTITLE3=Agonia
TTITLE4=Intuição
TTITLE5=Condor
TTITLE6=Chão de Giz
TTITLE7=Aos Filhos de Câncer
TTITLE8=Estrelas
TTITLE9=Aos Filhos dos Hipies
TTITLE10=Bandolins
TTITLE11=A Palo Seco
TTITLE12=Aos Filhos de Touro
TTITLE13=O Gago
TTITLE14=Sempre Não É Todo Dia
TTITLE15=Espelho das Águas
TTITLE16=Kid Cultura
TTITLE17=Drops de Hortelã
TTITLE18=Aos Filhos de Capricórnio
TTITLE19=Léo e Bia
EXTD=
EXTT0=
EXTT1=
EXTT2=
EXTT3=
EXTT4=
EXTT5=
EXTT6=
EXTT7=
EXTT8=
EXTT9=
EXTT10=
EXTT11=
EXTT12=
EXTT13=
EXTT14=
EXTT15=
EXTT16=
EXTT17=
EXTT18=
EXTT19=
PLAYORDER=
